<svg xmlns="http://www.w3.org/2000/svg" viewBox="0 0 28 20" width="28" height="20">
  <path fill="#FF0000" d="M27.9727 3.12324C27.6435 1.89194 26.6768 0.925218 25.4455 0.595978C23.2197 0 14.285 0 14.285 0C14.285 0 5.35042 0 3.12465 0.595978C1.89336 0.925218 0.926641 1.89194 0.597402 3.12324C0 5.34895 0 10 0 10C0 10 0 14.6511 0.597402 16.8768C0.926641 18.1081 1.89336 19.0748 3.12465 19.404C5.35042 20 14.285 20 14.285 20C14.285 20 23.2197 20 25.4455 19.404C26.6768 19.0748 27.6435 18.1081 27.9727 16.8768C28.5701 14.6511 28.5701 10 28.5701 10C28.5701 10 28.5701 5.34895 27.9727 3.12324Z"/>
  <path fill="#fff" d="M11.4253 14.2854L18.8477 10.0004L11.4253 5.71533V14.2854Z"/>
</svg>
